<svg width="187" height="61" viewBox="0 0 187 61" fill="none" xmlns="http://www.w3.org/2000/svg">
<path fill-rule="evenodd" clip-rule="evenodd" d="M30.9418 4.96926L26.5876 11.9385C14.6788 1.16775 2.73282 13.5783 17.135 16.7836C36.9705 18.7959 36.3379 39.0705 22.1961 41.94C13.1158 42.9836 5.78433 41.0457 0.5 35.5671L5.44948 29.753C22.5311 43.0954 30.8302 26.9207 16.093 25.0573C0.462646 22.9328 -3.44478 7.39172 9.69197 1.16775C17.7304 -1.55286 24.9872 0.795004 30.9418 4.96926Z" fill="white"/>
<path fill-rule="evenodd" clip-rule="evenodd" d="M34.3262 0.757812L68.6756 0.757812V9.25512H55.7248V42.0147H47.277V9.25512H34.3262V0.757812Z" fill="white"/>
<path fill-rule="evenodd" clip-rule="evenodd" d="M119.105 0.535156L119.366 41.7548L127.293 41.7174L127.218 28.6732L137.453 28.7478C156.134 27.816 155.241 1.28058 137.043 0.609761L119.105 0.535156ZM127.293 8.99527V21.1823L136.969 21.2567C144.375 20.8093 143.556 9.33054 136.969 9.0324L127.293 8.99527Z" fill="white"/>
<path fill-rule="evenodd" clip-rule="evenodd" d="M82.0002 0.944647L76.4551 9.10662L107.79 9.10662L113.856 0.609375L82.0002 0.944647Z" fill="#ED1C24"/>
<path fill-rule="evenodd" clip-rule="evenodd" d="M76.9767 17.1927L71.4316 25.3918H102.767L108.833 16.8945L76.9767 17.1927Z" fill="#ED1C24"/>
<path fill-rule="evenodd" clip-rule="evenodd" d="M72.7715 33.6673L67.2266 41.8667H98.5615L104.627 33.3691L72.7715 33.6673Z" fill="#ED1C24"/>
<path fill-rule="evenodd" clip-rule="evenodd" d="M184.975 4.96926L180.621 11.9385C168.712 1.16775 156.766 13.5783 171.168 16.7836C191.004 18.7959 190.371 39.0705 176.229 41.94C167.149 42.9836 159.818 41.0457 154.533 35.5671L159.483 29.753C176.564 43.0954 184.863 26.9207 170.126 25.0573C154.496 22.9328 150.588 7.39172 163.725 1.16775C171.764 -1.55286 179.021 0.795004 184.975 4.96926Z" fill="white"/>
<path d="M143.219 47.755C143.107 48.2021 143.033 48.6122 142.921 48.9847C142.921 49.0593 142.884 49.0967 142.81 49.0967C142.772 49.0967 142.698 49.0967 142.661 49.0593C142.661 49.0221 142.586 48.9475 142.4 48.8358C142.14 48.6494 141.73 48.5004 141.209 48.3885C140.54 48.2767 139.349 48.2021 137.674 48.2021C137.562 48.2021 137.525 48.2395 137.488 48.3139C137.302 49.8047 137.079 51.3702 136.855 53.0472C136.818 53.1589 136.893 53.2335 137.004 53.2335H140.986C141.098 53.2335 141.209 53.1589 141.284 53.0098C141.358 52.7863 141.47 52.5253 141.582 52.19C141.619 52.0782 141.656 52.041 141.73 52.041H141.879C141.991 52.041 141.991 52.0782 141.991 52.19C141.954 52.4881 141.842 52.9726 141.768 53.6434C141.73 54.0908 141.656 54.6125 141.619 55.2833C141.582 55.4325 141.544 55.507 141.507 55.507H141.284C141.209 55.507 141.209 55.4696 141.209 55.3579C141.209 54.9106 141.172 54.5378 141.135 54.2025C141.098 54.0534 140.986 53.979 140.837 53.979C140.763 53.979 140.093 53.979 138.828 53.9416C137.562 53.9416 136.892 53.9044 136.855 53.9044C136.781 53.9044 136.744 53.979 136.706 54.0908C136.706 54.2397 136.595 55.4325 136.334 57.6313C136.26 58.3394 136.185 58.8611 136.185 59.2338C136.185 59.7183 136.297 59.9792 136.446 59.9792H137.823C137.86 59.9792 137.897 60.0164 137.897 60.091L137.86 60.3892C137.86 60.4265 137.823 60.4637 137.748 60.4637H133.58C133.543 60.4637 133.506 60.4265 133.506 60.352C133.506 60.2773 133.543 60.2027 133.543 60.0538C133.543 60.0164 133.58 59.9792 133.618 59.9792H134.287C134.585 59.9792 134.771 59.8301 134.808 59.5693C134.995 57.7431 135.218 55.8424 135.441 53.9044C135.59 52.6745 135.739 51.3702 135.888 49.9911C136.037 48.7239 135.999 48.0531 135.739 48.0531H134.548C134.474 48.0531 134.474 48.0159 134.474 47.9785C134.474 47.9041 134.474 47.7922 134.511 47.6431C134.511 47.6059 134.548 47.5687 134.622 47.5687L142.921 47.5312C143.145 47.5312 143.219 47.6058 143.219 47.755ZM150.848 54.9479C150.848 55.8424 150.625 56.6996 150.178 57.5567C149.769 58.3394 149.248 59.0102 148.578 59.5693C147.759 60.2401 146.978 60.5755 146.233 60.5755C145.415 60.5755 144.745 60.2773 144.261 59.6065C143.852 59.0848 143.666 58.3022 143.666 57.333C143.666 55.805 144.298 54.3889 145.601 53.0472C146.531 52.0782 147.462 51.5937 148.429 51.5937C149.211 51.5937 149.843 51.8918 150.253 52.4507C150.662 53.0472 150.848 53.867 150.848 54.9479ZM149.434 55.1341C149.434 54.0908 149.285 53.3453 148.987 52.9354C148.69 52.5253 148.28 52.339 147.796 52.339C147.313 52.339 146.829 52.5253 146.42 52.9354C145.973 53.3453 145.601 53.9416 145.34 54.7616C145.117 55.507 145.005 56.2896 145.005 57.1095C145.005 58.0413 145.117 58.7121 145.415 59.122C145.713 59.6439 146.159 59.8675 146.792 59.8675C147.313 59.8675 147.796 59.6811 148.169 59.271C149.025 58.4512 149.434 57.0723 149.434 55.1341ZM158.552 52.1528C158.552 52.339 158.477 52.5253 158.328 52.6745C158.142 52.8608 157.919 52.9726 157.658 52.9726C157.361 52.9726 157.026 52.9354 156.616 52.8608C156.505 52.8237 156.43 52.8608 156.356 52.898C155.946 53.2707 155.537 53.7924 155.091 54.5006C154.532 55.4696 154.16 56.4758 153.974 57.445C153.863 57.9667 153.751 58.9356 153.565 60.2773C153.528 60.4265 153.49 60.4637 153.341 60.4637H152.486C152.337 60.4637 152.299 60.4265 152.299 60.3147C152.448 59.4947 152.672 58.1902 152.969 56.364C153.193 54.8734 153.267 53.7552 153.267 52.9726C153.267 52.8608 153.267 52.8237 153.193 52.8237C152.932 52.9354 152.56 53.1589 152.151 53.4945C152.113 53.5317 152.076 53.5317 152.039 53.4945C152.002 53.4945 151.965 53.4571 151.89 53.3826C151.89 53.3454 151.89 53.3082 151.927 53.2707C152.486 52.6745 153.155 52.19 153.9 51.8172C154.16 51.6681 154.346 51.6309 154.421 51.6309C154.532 51.6309 154.57 51.6681 154.57 51.7801C154.57 51.9664 154.57 52.1154 154.57 52.2646C154.458 53.3826 154.346 54.3143 154.235 55.0597C154.197 55.2461 154.197 55.3205 154.235 55.3579C154.272 55.3205 154.309 55.2461 154.346 55.0969C154.681 54.3143 155.202 53.5317 155.909 52.7491C156.579 51.9664 157.212 51.5937 157.807 51.5937C158.328 51.5937 158.552 51.7801 158.552 52.1528ZM165.101 52.5627C165.101 52.6373 164.99 52.7491 164.841 52.898C163.65 53.9044 162.124 54.8362 160.301 55.8049C160.189 55.8424 160.115 55.917 160.115 56.0287C160.077 56.2151 160.04 56.5132 160.04 56.8859C160.04 57.7057 160.226 58.3394 160.636 58.8239C160.97 59.1966 161.38 59.3829 161.901 59.3829C162.72 59.3829 163.501 59.0474 164.32 58.3394C164.357 58.3022 164.394 58.2648 164.469 58.3022C164.469 58.3394 164.506 58.3766 164.58 58.4512C164.58 58.4884 164.58 58.563 164.58 58.563C164.32 58.9356 163.948 59.271 163.464 59.6065C162.534 60.2773 161.64 60.5755 160.822 60.5755C160.263 60.5755 159.817 60.2773 159.445 59.6439C159.035 58.973 158.812 58.0413 158.812 56.8487C158.812 55.2833 159.407 53.9044 160.598 52.7863C161.38 52.0036 162.087 51.5937 162.757 51.5937C163.65 51.5937 164.134 51.929 164.246 52.5627C164.246 52.6745 164.32 52.7119 164.432 52.7119C164.432 52.7119 164.543 52.6373 164.692 52.4881C164.804 52.339 164.915 52.3018 164.953 52.3018C165.064 52.339 165.101 52.4135 165.101 52.5627ZM163.092 53.4571C163.092 53.1961 163.017 52.9726 162.831 52.7863C162.645 52.5999 162.422 52.4881 162.199 52.4881C161.715 52.4881 161.343 52.6373 161.045 52.9726C160.673 53.3453 160.412 54.0534 160.263 55.1715C160.226 55.2833 160.226 55.3205 160.263 55.3205C160.301 55.3205 160.338 55.3205 160.375 55.2833C161.38 54.8362 162.273 54.2771 163.017 53.718C163.055 53.6806 163.092 53.6063 163.092 53.4571ZM172.358 52.4507C172.247 53.7924 171.688 55.3951 170.646 57.2585C170.088 58.2648 169.381 59.4201 168.525 60.6501C168.414 60.799 168.339 60.8736 168.265 60.8736C168.19 60.8736 168.153 60.799 168.116 60.6127C167.893 59.0848 167.632 57.7057 167.334 56.4014C166.888 54.5753 166.441 53.4199 166.032 52.898C165.771 52.5999 165.474 52.4881 165.139 52.5999C165.027 52.6373 164.99 52.6373 164.953 52.5999C164.915 52.5627 164.915 52.5253 164.953 52.4507C165.027 52.2646 165.176 52.1154 165.362 51.929C165.585 51.7801 165.771 51.7055 165.995 51.7055C166.739 51.7055 167.334 52.2646 167.707 53.3454C168.302 55.0223 168.711 56.8859 168.972 58.9356C168.972 59.0474 169.009 59.0848 169.046 59.0848C169.046 59.0848 169.121 59.0474 169.195 58.9356C169.79 57.9667 170.274 57.0723 170.609 56.3268C170.944 55.5442 171.168 54.7242 171.242 53.867C171.316 53.2335 171.279 52.7491 171.205 52.4507C171.168 52.339 171.168 52.2646 171.205 52.2272C171.242 52.1528 171.316 52.1528 171.391 52.1528C171.688 52.19 171.949 52.19 172.172 52.1528C172.247 52.1528 172.321 52.1528 172.321 52.19C172.358 52.2646 172.358 52.339 172.358 52.4507ZM179.504 52.5627C179.504 52.6373 179.429 52.7491 179.243 52.898C178.052 53.9044 176.526 54.8362 174.703 55.8049C174.629 55.8424 174.554 55.917 174.517 56.0287C174.48 56.2151 174.48 56.5132 174.48 56.8859C174.48 57.7057 174.666 58.3394 175.038 58.8239C175.373 59.1966 175.819 59.3829 176.303 59.3829C177.122 59.3829 177.941 59.0474 178.722 58.3394C178.797 58.3022 178.834 58.2648 178.871 58.3022C178.871 58.3394 178.908 58.3766 178.983 58.4512C179.02 58.4884 179.02 58.563 178.983 58.563C178.722 58.9356 178.387 59.271 177.903 59.6065C176.936 60.2773 176.043 60.5755 175.224 60.5755C174.703 60.5755 174.219 60.2773 173.847 59.6439C173.437 58.973 173.251 58.0413 173.251 56.8487C173.251 55.2833 173.81 53.9044 175.001 52.7863C175.819 52.0036 176.526 51.5937 177.159 51.5937C178.052 51.5937 178.573 51.929 178.648 52.5627C178.685 52.6745 178.722 52.7119 178.834 52.7119C178.871 52.7119 178.945 52.6373 179.094 52.4881C179.243 52.339 179.318 52.3018 179.355 52.3018C179.466 52.339 179.504 52.4135 179.504 52.5627ZM177.494 53.4571C177.531 53.1961 177.42 52.9726 177.234 52.7863C177.047 52.5999 176.861 52.4881 176.601 52.4881C176.154 52.4881 175.745 52.6373 175.447 52.9726C175.075 53.3453 174.815 54.0534 174.666 55.1715C174.666 55.2833 174.666 55.3205 174.666 55.3205C174.703 55.3205 174.74 55.3205 174.777 55.2833C175.782 54.8362 176.675 54.2771 177.457 53.718C177.457 53.6806 177.494 53.6063 177.494 53.4571ZM186.5 52.1528C186.5 52.339 186.426 52.5253 186.24 52.6745C186.054 52.8608 185.867 52.9726 185.607 52.9726C185.309 52.9726 184.937 52.9354 184.528 52.8608C184.453 52.8237 184.342 52.8608 184.267 52.898C183.858 53.2707 183.448 53.7924 183.039 54.5006C182.444 55.4696 182.071 56.4758 181.886 57.445C181.811 57.9667 181.662 58.9356 181.476 60.2773C181.476 60.4265 181.402 60.4637 181.29 60.4637H180.397C180.285 60.4637 180.211 60.4265 180.248 60.3147C180.397 59.4947 180.62 58.1902 180.918 56.364C181.104 54.8734 181.216 53.7552 181.216 52.9726C181.216 52.8608 181.178 52.8237 181.141 52.8237C180.843 52.9354 180.508 53.1589 180.099 53.4945C180.062 53.5317 179.987 53.5317 179.987 53.4945C179.95 53.4945 179.913 53.4571 179.839 53.3826C179.801 53.3454 179.801 53.3082 179.839 53.2707C180.434 52.6745 181.067 52.19 181.811 51.8172C182.071 51.6681 182.257 51.6309 182.369 51.6309C182.481 51.6309 182.518 51.6681 182.518 51.7801C182.518 51.9664 182.518 52.1154 182.481 52.2646C182.369 53.3826 182.295 54.3143 182.183 55.0597C182.146 55.2461 182.146 55.3205 182.146 55.3579C182.183 55.3205 182.22 55.2461 182.295 55.0969C182.63 54.3143 183.151 53.5317 183.821 52.7491C184.491 51.9664 185.16 51.5937 185.756 51.5937C186.24 51.5937 186.5 51.7801 186.5 52.1528Z" fill="white"/>
</svg>
