<!DOCTYPE svg PUBLIC "-//W3C//DTD SVG 1.1//EN" "http://www.w3.org/Graphics/SVG/1.1/DTD/svg11.dtd">
<!-- Uploaded to: SVG Repo, www.svgrepo.com, Transformed by: SVG Repo Mixer Tools -->
<svg fill="#5AAD92" height="800px" width="800px" version="1.1" id="Capa_1" xmlns="http://www.w3.org/2000/svg" xmlns:xlink="http://www.w3.org/1999/xlink" viewBox="0 0 60 60" xml:space="preserve">
<g id="SVGRepo_bgCarrier" stroke-width="0"/>
<g id="SVGRepo_tracerCarrier" stroke-linecap="round" stroke-linejoin="round"/>
<g id="SVGRepo_iconCarrier"> <g> <g> <path d="M57.727,5H2.273C1.02,5,0,6.02,0,7.273v42.453C0,50.98,1.02,52,2.273,52H4v3h52v-3h1.727C58.98,52,60,50.98,60,49.727 V7.273C60,6.02,58.98,5,57.727,5z M54,53H6v-1h48V53z M58,49.727C58,49.877,57.877,50,57.727,50H56H4H2.273 C2.123,50,2,49.877,2,49.727V7.273C2,7.123,2.123,7,2.273,7h55.453C57.877,7,58,7.123,58,7.273V49.727z"/> <path d="M41.545,9H8.455C5.999,9,4,10.999,4,13.455v30.09C4,46.001,5.999,48,8.455,48h33.09C44.001,48,46,46.001,46,43.545v-30.09 C46,10.999,44.001,9,41.545,9z M6,43.545v-30.09C6,12.102,7.102,11,8.455,11H24v35H8.455C7.102,46,6,44.898,6,43.545z M44,43.545 C44,44.898,42.898,46,41.545,46H26V11h15.545C42.898,11,44,12.102,44,13.455V43.545z"/> <path d="M52,36c-2.757,0-5,2.243-5,5s2.243,5,5,5s5-2.243,5-5S54.757,36,52,36z M52,44c-1.654,0-3-1.346-3-3s1.346-3,3-3 c1.302,0,2.402,0.839,2.816,2H54c-0.553,0-1,0.447-1,1s0.447,1,1,1h0.816C54.402,43.161,53.302,44,52,44z"/> <path d="M51,29h-4v6h4h2h4v-6h-4H51z M51,33h-2v-2h2V33z M55,31v2h-2v-2H55z"/> <path d="M49,23h6c0.553,0,1-0.447,1-1s-0.447-1-1-1h-6c-0.553,0-1,0.447-1,1S48.447,23,49,23z"/> <path d="M49,20h6c0.553,0,1-0.447,1-1s-0.447-1-1-1h-6c-0.553,0-1,0.447-1,1S48.447,20,49,20z"/> <path d="M49,17h6c0.553,0,1-0.447,1-1s-0.447-1-1-1h-6c-0.553,0-1,0.447-1,1C48,16.553,48.447,17,49,17z"/> <path d="M49,14h6c0.553,0,1-0.447,1-1s-0.447-1-1-1h-6c-0.553,0-1,0.447-1,1S48.447,14,49,14z"/> <path d="M9,34c-0.553,0-1,0.447-1,1v7c0,0.553,0.447,1,1,1s1-0.447,1-1v-7C10,34.447,9.553,34,9,34z"/> <path d="M41,14c-0.553,0-1,0.447-1,1v7c0,0.553,0.447,1,1,1s1-0.447,1-1v-7C42,14.447,41.553,14,41,14z"/> <circle cx="37" cy="22" r="1"/> </g> </g> </g>
</svg>