<!DOCTYPE svg PUBLIC "-//W3C//DTD SVG 1.1//EN" "http://www.w3.org/Graphics/SVG/1.1/DTD/svg11.dtd">
<!-- Uploaded to: SVG Repo, www.svgrepo.com, Transformed by: SVG Repo Mixer Tools -->
<svg fill="#5AAD92" height="800px" width="800px" version="1.1" id="Layer_1" xmlns="http://www.w3.org/2000/svg" xmlns:xlink="http://www.w3.org/1999/xlink" viewBox="0 0 470 470" xml:space="preserve" stroke="#5AAD92">
<g id="SVGRepo_bgCarrier" stroke-width="0"/>
<g id="SVGRepo_tracerCarrier" stroke-linecap="round" stroke-linejoin="round"/>
<g id="SVGRepo_iconCarrier"> <g> <g> <g> <circle cx="113.75" cy="432.5" r="7.5"/> <path d="M220,0H7.5C3.357,0,0,3.358,0,7.5v455c0,4.142,3.357,7.5,7.5,7.5H220c4.143,0,7.5-3.358,7.5-7.5V7.5 C227.5,3.358,224.143,0,220,0z M212.5,15v290H15V15H212.5z M15,455V320h197.5v135H15z"/> <path d="M113.75,243.75c46.18,0,83.75-37.57,83.75-83.75s-37.57-83.75-83.75-83.75S30,113.82,30,160S67.57,243.75,113.75,243.75z M113.75,91.25c37.909,0,68.75,30.841,68.75,68.75s-30.841,68.75-68.75,68.75S45,197.909,45,160S75.841,91.25,113.75,91.25z"/> <path d="M113.75,213.75c29.638,0,53.75-24.112,53.751-53.75c0-8.28-1.841-16.231-5.472-23.634 c-1.823-3.719-6.316-5.257-10.036-3.432c-3.719,1.824-5.255,6.317-3.431,10.036c2.613,5.33,3.938,11.059,3.938,17.03 c0,21.367-17.383,38.75-38.75,38.75S75,181.367,75,160s17.383-38.75,38.751-38.749c5.97,0,11.7,1.325,17.03,3.938 c3.72,1.824,8.213,0.287,10.036-3.432s0.287-8.212-3.433-10.036c-7.403-3.63-15.354-5.471-23.634-5.471 C84.112,106.25,60,130.362,60,160S84.112,213.75,113.75,213.75z"/> <circle cx="356.25" cy="432.5" r="7.5"/> <path d="M356.25,335c-20.678,0-37.5,16.822-37.5,37.5c0,20.678,16.822,37.5,37.5,37.5c20.678,0,37.5-16.822,37.5-37.5 C393.75,351.822,376.928,335,356.25,335z M356.25,395c-12.406,0-22.5-10.093-22.5-22.5c0-12.407,10.094-22.5,22.5-22.5 s22.5,10.093,22.5,22.5C378.75,384.907,368.656,395,356.25,395z"/> <path d="M462.5,0H250c-4.143,0-7.5,3.358-7.5,7.5v455c0,4.142,3.357,7.5,7.5,7.5h212.5c4.143,0,7.5-3.358,7.5-7.5V7.5 C470,3.358,466.643,0,462.5,0z M455,15v290H257.5V15H455z M257.5,455V320H455v135H257.5z"/> <path d="M356.25,243.75c46.18,0,83.75-37.57,83.75-83.75s-37.57-83.75-83.75-83.75S272.5,113.82,272.5,160 S310.07,243.75,356.25,243.75z M356.25,91.25c37.909,0,68.75,30.841,68.75,68.75s-30.841,68.75-68.75,68.75 S287.5,197.909,287.5,160S318.341,91.25,356.25,91.25z"/> <path d="M356.25,213.75c29.638,0,53.75-24.112,53.75-53.75c0-8.28-1.841-16.231-5.471-23.634 c-1.824-3.719-6.316-5.257-10.036-3.432c-3.719,1.824-5.255,6.317-3.431,10.036C393.675,148.3,395,154.029,395,160 c0,21.367-17.382,38.751-38.749,38.751s-38.75-17.383-38.75-38.75s17.383-38.75,38.75-38.75c5.97,0,11.7,1.325,17.03,3.938 c3.721,1.824,8.213,0.287,10.036-3.432s0.287-8.212-3.433-10.036c-7.403-3.63-15.354-5.471-23.634-5.471 c-29.638,0-53.75,24.112-53.75,53.75S326.612,213.75,356.25,213.75z"/> </g> </g> </g> </g>
</svg>